<svg width="239" height="41" viewBox="0 0 239 41" fill="none" xmlns="http://www.w3.org/2000/svg">
<g clip-path="url(#clip0_76_58)">
<path d="M44.33 0H10.48C4.69 0 0 4.69 0 10.48C0 16.27 4.69 20.96 10.48 20.96H16.93V29.83C16.93 35.62 21.62 40.31 27.41 40.31C33.2 40.31 37.89 35.62 37.89 29.83V20.96H44.34C50.13 20.96 54.82 16.27 54.82 10.48C54.82 4.69 50.13 0 44.34 0H44.33Z" fill="white"/>
<path d="M105 0C99.49 0 94.97 4.26 94.56 9.67H83.19C82.78 4.26 78.26 0 72.75 0C66.96 0 62.27 4.69 62.27 10.48V29.82C62.27 35.61 66.96 40.3 72.75 40.3C78.26 40.3 82.78 36.04 83.19 30.63H94.56C94.97 36.04 99.49 40.3 105 40.3C110.79 40.3 115.48 35.61 115.48 29.82V10.48C115.48 4.69 110.79 0 105 0Z" fill="white"/>
<path d="M228.02 0C222.23 0 217.54 4.69 217.54 10.48V11.29L201.26 1.56C199.66 0.57 197.78 0 195.76 0C189.97 0 185.28 4.69 185.28 10.48V29.82C185.28 35.61 189.97 40.3 195.76 40.3C201.55 40.3 206.24 35.61 206.24 29.82V28.94L221.78 38.23C223.52 39.53 225.68 40.29 228.02 40.29C233.81 40.29 238.5 35.6 238.5 29.81V10.48C238.5 4.69 233.81 0 228.02 0Z" fill="white"/>
<path d="M174.34 21.0701L166.36 13.0901L155.38 2.11011C152.63 -0.639893 148.18 -0.639893 145.43 2.11011L134.45 13.0901L126.47 21.0701C122.06 25.4801 122.06 32.6201 126.47 37.0301C130.88 41.4401 138.02 41.4401 142.43 37.0301L150.41 29.0501L158.39 37.0301C162.8 41.4401 169.94 41.4401 174.35 37.0301C178.76 32.6201 178.76 25.4801 174.35 21.0701H174.34Z" fill="#FF0000"/>
</g>
<defs>
<clipPath id="clip0_76_58">
<rect width="238.5" height="40.33" fill="white"/>
</clipPath>
</defs>
</svg>
